<svg xmlns="http://www.w3.org/2000/svg" xmlns:xlink="http://www.w3.org/1999/xlink"  viewBox="0 0 15.75 18">

    <path  d="M7.875,18a2.252,2.252,0,0,1-2.249-2.25h4.5A2.252,2.252,0,0,1,7.875,18Zm6.746-3.375H1.129A1.121,1.121,0,0,1,0,13.5a1.1,1.1,0,0,1,.3-.763l.13-.138c.682-.717,1.82-1.913,1.82-5.286a5.555,5.555,0,0,1,4.5-5.455V1.125A1.124,1.124,0,1,1,9,1.125v.733a5.555,5.555,0,0,1,4.5,5.455c0,3.373,1.138,4.569,1.818,5.284l.133.141a1.1,1.1,0,0,1,.3.763A1.121,1.121,0,0,1,14.621,14.625ZM7.875,3.375A3.942,3.942,0,0,0,3.938,7.313a.077.077,0,0,0,0,.01.078.078,0,0,1,0,.01,9,9,0,0,1-1.565,5.6h11a9,9,0,0,1-1.565-5.6.076.076,0,0,1,0-.01.079.079,0,0,0,0-.011A3.942,3.942,0,0,0,7.875,3.375Z" />
</svg>
