<svg xmlns="http://www.w3.org/2000/svg"  viewBox="0 0 20 20">
  <path  d="M17.5,20H2.5A2.5,2.5,0,0,1,0,17.5V5A2.5,2.5,0,0,1,2.5,2.5h.625v.625a1.252,1.252,0,0,0,1.25,1.25h1.25a1.252,1.252,0,0,0,1.25-1.25V2.5h6.25v.625a1.252,1.252,0,0,0,1.25,1.25h1.25a1.252,1.252,0,0,0,1.25-1.25V2.5H17.5A2.5,2.5,0,0,1,20,5V17.5A2.5,2.5,0,0,1,17.5,20ZM2.5,6.25A1.252,1.252,0,0,0,1.25,7.5v10A1.252,1.252,0,0,0,2.5,18.75h15a1.252,1.252,0,0,0,1.25-1.25V7.5A1.252,1.252,0,0,0,17.5,6.25Zm13.125,10h-1.25a.626.626,0,0,1-.625-.626v-1.25a.625.625,0,0,1,.625-.625h1.25a.626.626,0,0,1,.626.625v1.25A.626.626,0,0,1,15.625,16.25Zm-5,0H9.375a.626.626,0,0,1-.625-.626v-1.25a.626.626,0,0,1,.625-.625h1.25a.625.625,0,0,1,.625.625v1.25A.626.626,0,0,1,10.625,16.25Zm-5,0H4.375a.626.626,0,0,1-.625-.626v-1.25a.625.625,0,0,1,.625-.625h1.25a.625.625,0,0,1,.625.625v1.25A.626.626,0,0,1,5.625,16.25Zm10-5h-1.25a.625.625,0,0,1-.625-.625V9.375a.626.626,0,0,1,.625-.625h1.25a.626.626,0,0,1,.626.625v1.25A.626.626,0,0,1,15.625,11.25Zm-5,0H9.375a.626.626,0,0,1-.625-.625V9.375a.626.626,0,0,1,.625-.625h1.25a.626.626,0,0,1,.625.625v1.25A.625.625,0,0,1,10.625,11.25Zm-5,0H4.375a.625.625,0,0,1-.625-.625V9.375a.626.626,0,0,1,.625-.625h1.25a.626.626,0,0,1,.625.625v1.25A.625.625,0,0,1,5.625,11.25Zm10-7.5h-1.25a.626.626,0,0,1-.625-.625V.625A.625.625,0,0,1,14.375,0h1.25a.626.626,0,0,1,.626.625v2.5A.626.626,0,0,1,15.625,3.75Zm-10,0H4.375a.626.626,0,0,1-.625-.625V.625A.625.625,0,0,1,4.375,0h1.25A.625.625,0,0,1,6.25.625v2.5A.626.626,0,0,1,5.625,3.75Z" />
</svg>
