<svg xmlns="http://www.w3.org/2000/svg" xmlns:xlink="http://www.w3.org/1999/xlink" width="17.965" height="13.474" viewBox="0 0 17.965 13.474">

    <path id="car-2" data-name="car" d="M15.719,13.474H14.6a1.124,1.124,0,0,1-1.122-1.123V11.228H4.491v1.122a1.124,1.124,0,0,1-1.122,1.123H2.245a1.124,1.124,0,0,1-1.123-1.123v-1.9A2.242,2.242,0,0,1,.562,8.983V7.3a2.241,2.241,0,0,1,.774-1.684h-.7a.42.42,0,0,1-.409-.319L.013,4.453a.422.422,0,0,1,.409-.524h2.1l.584-1.459A3.911,3.911,0,0,1,6.754,0H11.21a3.911,3.911,0,0,1,3.649,2.471l.584,1.459h2.1a.422.422,0,0,1,.409.524l-.211.842a.42.42,0,0,1-.409.319h-.7A2.242,2.242,0,0,1,17.4,7.3V8.983a2.234,2.234,0,0,1-.562,1.471v1.9A1.124,1.124,0,0,1,15.719,13.474ZM14.6,6.737a2.152,2.152,0,0,0-1.684,1.679c0,.5.547.567,1.138.567.1,0,.195,0,.289,0s.176,0,.257,0a1.062,1.062,0,0,0,1.123-1.12A1.062,1.062,0,0,0,14.6,6.737Zm-11.228,0a1.062,1.062,0,0,0-1.123,1.12,1.062,1.062,0,0,0,1.123,1.12c.081,0,.167,0,.256,0s.193,0,.29,0A2.443,2.443,0,0,0,4.7,8.888a.473.473,0,0,0,.356-.472A2.152,2.152,0,0,0,3.369,6.737ZM6.754,2.246A1.676,1.676,0,0,0,5.19,3.3l-.7,1.749h8.983l-.7-1.749A1.678,1.678,0,0,0,11.21,2.246Z" />
</svg>
