<svg xmlns="http://www.w3.org/2000/svg" xmlns:xlink="http://www.w3.org/1999/xlink"  viewBox="0 0 18 18">

    <path id="coins-2" data-name="coins" d="M6.75,18C3.028,18,0,16.991,0,15.75v-1.5c1.333.94,3.856,1.5,6.75,1.5s5.416-.561,6.75-1.5v1.5C13.5,16.991,10.472,18,6.75,18Zm0-3.375c-3.722,0-6.75-1.009-6.75-2.25V10.561c1.358,1.119,3.944,1.814,6.75,1.814s5.392-.7,6.75-1.814v1.814C13.5,13.616,10.472,14.625,6.75,14.625Zm0-3.375C3.028,11.25,0,9.988,0,8.438S3.028,5.625,6.75,5.625,13.5,6.887,13.5,8.438,10.472,11.25,6.75,11.25Zm7.875-.3h0V8.712A8.519,8.519,0,0,0,18,7.5V9c0,.8-1.293,1.544-3.374,1.947ZM14.459,7.6h0a3.935,3.935,0,0,0-2.108-2.01A11.407,11.407,0,0,0,18,4.124v1.5c0,.827-1.356,1.586-3.54,1.979ZM11.25,4.5C7.528,4.5,4.5,3.491,4.5,2.25S7.528,0,11.25,0,18,1.009,18,2.25,14.972,4.5,11.25,4.5Z" />
</svg>
