<svg xmlns="http://www.w3.org/2000/svg" xmlns:xlink="http://www.w3.org/1999/xlink"  viewBox="0 0 15.719 17.965">
  <defs>
    <clipPath id="clip-path">
      <rect width="15.719" height="17.966" fill="none"/>
    </clipPath>
  </defs>
  <g id="user-graduate" clip-path="url(#clip-path)">
    <path id="user-graduate-2" data-name="user-graduate" d="M14.036,17.966H1.684A1.686,1.686,0,0,1,0,16.282v-.337A4.7,4.7,0,0,1,4.513,11.25L7.86,14.6l3.347-3.347a4.7,4.7,0,0,1,4.513,4.694v.337A1.686,1.686,0,0,1,14.036,17.966ZM7.86,10.106A4.5,4.5,0,0,1,3.369,5.615a4.447,4.447,0,0,1,.49-2L1.544,3.057V4.9a.835.835,0,0,1,.421.713.826.826,0,0,1-.39.691l.548,2.186a.461.461,0,0,1-.072.387.248.248,0,0,1-.195.1H.39a.248.248,0,0,1-.195-.1.461.461,0,0,1-.072-.387L.671,6.306A.811.811,0,0,1,.7,4.9V2.854L.477,2.8A.577.577,0,0,1,0,2.247a.577.577,0,0,1,.476-.555L7.165.082a3.012,3.012,0,0,1,1.393,0L15.239,1.7a.577.577,0,0,1,.479.553.577.577,0,0,1-.479.552l-3.379.814a4.389,4.389,0,0,1,.491,2A4.5,4.5,0,0,1,7.86,10.106Z" transform="translate(0 0)" />
  </g>
</svg>
