<svg xmlns="http://www.w3.org/2000/svg" width="22" height="21.1" viewBox="0 0 22 21.1">
  <path id="Shape" d="M19.8,21.1H2.2A2.213,2.213,0,0,1,0,18.879L.011,6.663A2.182,2.182,0,0,1,2.2,4.442H4.6A3.3,3.3,0,0,1,10.45,1.488l.55.755.55-.744A3.29,3.29,0,0,1,17.6,3.332a3.386,3.386,0,0,1-.2,1.111h2.4A2.213,2.213,0,0,1,22,6.663V18.879A2.213,2.213,0,0,1,19.8,21.1ZM2.2,16.658v2.221H19.8V16.658Zm0-9.995v6.663H19.8V6.663H14.212L16.5,9.806l-1.782,1.3L12.1,7.507,11,6,9.9,7.507l-2.618,3.6L5.5,9.806,7.788,6.663ZM14.3,2.221a1.111,1.111,0,1,0,1.1,1.111A1.107,1.107,0,0,0,14.3,2.221Zm-6.6,0A1.111,1.111,0,1,0,8.8,3.332,1.107,1.107,0,0,0,7.7,2.221Z" fill="#fff"/>
</svg>
