<svg xmlns="http://www.w3.org/2000/svg"  viewBox="0 0 24 23.98">

    <path id="Path" d="M0,.471V6.979a.471.471,0,0,0,.471.471H6.979a.471.471,0,0,0,.471-.471V5.745a.471.471,0,1,0-.941,0v.764H.941V.941H6.509V2.074a.471.471,0,1,0,.941,0V.471A.471.471,0,0,0,6.979,0H.471A.471.471,0,0,0,0,.471Z" transform="translate(2.898 2.852)" />
    <path id="Shape" d="M2.423,2.894H.471A.471.471,0,0,1,0,2.423V.471A.471.471,0,0,1,.471,0H2.423a.471.471,0,0,1,.471.471V2.423A.471.471,0,0,1,2.423,2.894ZM.941.941V1.953H1.953V.941Z" transform="translate(5.177 5.13)" />
    <path id="Shape-2" data-name="Shape" d="M6.979,7.45H.471A.471.471,0,0,1,0,6.979V.471A.471.471,0,0,1,.471,0H6.979A.471.471,0,0,1,7.45.471V6.979A.471.471,0,0,1,6.979,7.45ZM.941.941V6.509H6.509V.941Z" transform="translate(2.898 13.663)" />
    <path id="Shape-3" data-name="Shape" d="M6.979,7.45H.471A.471.471,0,0,1,0,6.979V.471A.471.471,0,0,1,.471,0H6.979A.471.471,0,0,1,7.45.471V6.979A.471.471,0,0,1,6.979,7.45ZM.941.941V6.509H6.509V.941Z" transform="translate(13.742 2.852)" />
    <path id="Shape-4" data-name="Shape" d="M6.979,7.45H.471A.471.471,0,0,1,0,6.979V.471A.471.471,0,0,1,.471,0H6.979A.471.471,0,0,1,7.45.471V6.979A.471.471,0,0,1,6.979,7.45ZM.941.941V6.509H6.509V.941Z" transform="translate(13.742 13.663)" />
    <path id="Path-2" data-name="Path" d="M15.909,9.682a.471.471,0,0,0,0-.941H7.658V.471a.471.471,0,1,0-.941,0V8.74H.471a.471.471,0,0,0,0,.941H6.717v8.161a.471.471,0,0,0,.941,0V9.682Z" transform="translate(4.812 2.8)" />
    <path id="Shape-5" data-name="Shape" d="M2.423,2.894H.471A.471.471,0,0,1,0,2.423V.471A.471.471,0,0,1,.471,0H2.423a.471.471,0,0,1,.471.471V2.423A.471.471,0,0,1,2.423,2.894ZM.941.941V1.953H1.953V.941Z" transform="translate(5.177 15.976)" />
    <path id="Shape-6" data-name="Shape" d="M2.424,2.894H.471A.471.471,0,0,1,0,2.423V.471A.471.471,0,0,1,.471,0H2.424a.471.471,0,0,1,.47.471V2.423A.471.471,0,0,1,2.424,2.894ZM.941.941V1.953H1.953V.941Z" transform="translate(16.02 5.13)" />
    <path id="Shape-7" data-name="Shape" d="M2.424,2.894H.471A.471.471,0,0,1,0,2.423V.471A.471.471,0,0,1,.471,0H2.424a.471.471,0,0,1,.47.471V2.423A.471.471,0,0,1,2.424,2.894ZM.941.941V1.953H1.953V.941Z" transform="translate(16.02 15.976)" />
    <path id="Path-3" data-name="Path" d="M.388.013.363.018A.471.471,0,1,0,.579.935L.6.929A.471.471,0,0,0,.388.013Z" transform="translate(2.886 11.53)" />
    <path id="Path-4" data-name="Path" d="M.388.013.363.019A.471.471,0,0,0,.47.948.465.465,0,0,0,.578.935L.6.929A.471.471,0,0,0,.388.013Z" transform="translate(9.395 6.28)" />
    <path id="Path-5" data-name="Path" d="M.471,3.855a.47.47,0,0,0,.471-.471V.941H3.3A.471.471,0,1,0,3.3,0H.471A.471.471,0,0,0,0,.471V3.384A.471.471,0,0,0,.471,3.855Z" transform="translate(0 0.012)" />
    <path id="Path-6" data-name="Path" d="M3.3,0H.471a.471.471,0,1,0,0,.941H2.825V3.384a.471.471,0,0,0,.941,0V.471A.471.471,0,0,0,3.3,0Z" transform="translate(20.234 0.012)" />
    <path id="Path-7" data-name="Path" d="M3.3,2.913H.941V.471A.471.471,0,0,0,0,.471V3.384a.471.471,0,0,0,.471.471H3.3a.471.471,0,1,0,0-.941Z" transform="translate(0 20.138)" />
    <path id="Path-8" data-name="Path" d="M3.3,0a.471.471,0,0,0-.471.471V2.913H.471a.471.471,0,1,0,0,.941H3.3a.471.471,0,0,0,.471-.471V.471A.471.471,0,0,0,3.3,0Z" transform="translate(20.234 20.138)" />

</svg>
