<svg xmlns="http://www.w3.org/2000/svg" xmlns:xlink="http://www.w3.org/1999/xlink"  viewBox="0 0 17.998 18">
  <defs>
    <clipPath id="clip-path">
      <rect width="17.998" height="18" fill="none"/>
    </clipPath>
  </defs>
  <g id="weight-hanging" clip-path="url(#clip-path)">
    <path id="weight-hanging-2" data-name="weight-hanging" d="M16.312,18H1.688A1.629,1.629,0,0,1,.4,17.354,1.969,1.969,0,0,1,.06,15.674L2.629,5.4a1.148,1.148,0,0,1,1.085-.9H5.832a3.316,3.316,0,0,1-.207-1.125,3.375,3.375,0,0,1,6.75,0A3.336,3.336,0,0,1,12.169,4.5h2.118a1.147,1.147,0,0,1,1.085.9l2.568,10.27a1.969,1.969,0,0,1-.345,1.679A1.629,1.629,0,0,1,16.312,18ZM9,2.25a1.125,1.125,0,1,0,1.125,1.125A1.126,1.126,0,0,0,9,2.25Z" />
  </g>
</svg>
