<svg xmlns="http://www.w3.org/2000/svg" xmlns:xlink="http://www.w3.org/1999/xlink"  viewBox="0 0 22.489 24.981">
  <path id="Path" d="M2.4,11.547A9.893,9.893,0,0,1,1.249,6.732,5.672,5.672,0,0,1,7.076,1.249,5.668,5.668,0,0,1,12.9,6.732a.625.625,0,1,0,1.249,0A6.915,6.915,0,0,0,7.076,0,6.919,6.919,0,0,0,0,6.732a11.115,11.115,0,0,0,1.318,5.427A13.087,13.087,0,0,0,3.828,15.45a.62.62,0,0,0,.443.187A.56.56,0,0,0,4.7,15.45a.616.616,0,0,0,.006-.881A11.838,11.838,0,0,1,2.4,11.547Z" transform="translate(4.184 9.074)" />
  <path id="Path-2" data-name="Path" d="M.925,3.01A14.358,14.358,0,0,1,7.882,1.249a14.283,14.283,0,0,1,6.957,1.767.669.669,0,0,0,.287.069h0a.625.625,0,0,0,.287-1.18A15.654,15.654,0,0,0,7.882,0,15.632,15.632,0,0,0,.325,1.911a.626.626,0,1,0,.6,1.1Z" transform="translate(3.39)" />
  <path id="Path-3" data-name="Path" d="M10.236,0A10.374,10.374,0,0,0,.856,5.739,9.248,9.248,0,0,0,0,9.78a13.907,13.907,0,0,0,.912,4.94.626.626,0,0,0,1.174-.437,12.46,12.46,0,0,1-.831-4.5,8.023,8.023,0,0,1,.731-3.5,9.112,9.112,0,0,1,8.256-5.034A8.813,8.813,0,0,1,19.291,9.78a2.6,2.6,0,0,1-5.2,0A3.768,3.768,0,0,0,10.248,6.1,3.768,3.768,0,0,0,6.4,9.78a9.144,9.144,0,0,0,2.7,6.52,9.539,9.539,0,0,0,4.64,2.623.465.465,0,0,0,.162.025.623.623,0,0,0,.162-1.224,8.426,8.426,0,0,1-4.091-2.3A7.9,7.9,0,0,1,7.644,9.786a2.52,2.52,0,0,1,2.6-2.429,2.524,2.524,0,0,1,2.6,2.429,3.851,3.851,0,0,0,7.694,0A10.064,10.064,0,0,0,10.236,0Z" transform="translate(0.98 6.033)" />
  <path id="Path-4" data-name="Path" d="M22.372,5.573a13.066,13.066,0,0,0-4.684-4.059A14.411,14.411,0,0,0,4.8,1.526,13.008,13.008,0,0,0,.115,5.617a.622.622,0,0,0,.15.868A.651.651,0,0,0,.627,6.6a.636.636,0,0,0,.512-.256,11.728,11.728,0,0,1,4.24-3.7A13.141,13.141,0,0,1,17.12,2.625,11.726,11.726,0,0,1,21.354,6.3a.628.628,0,0,0,.874.144A.621.621,0,0,0,22.372,5.573Z" transform="translate(0.016 3.045)" />
  <path id="Path-5" data-name="Path" d="M8.144,5.845a8.2,8.2,0,0,1-1.305.119,5.446,5.446,0,0,1-3.166-.893A5.4,5.4,0,0,1,1.249.625.625.625,0,0,0,0,.625,6.66,6.66,0,0,0,2.966,6.108,6.784,6.784,0,0,0,6.838,7.213a8.944,8.944,0,0,0,1.524-.137.625.625,0,0,0-.219-1.23Z" transform="translate(10.566 15.188)" />
</svg>
