<svg id="train" xmlns="http://www.w3.org/2000/svg" width="25.75" height="30" viewBox="0 0 25.75 30">
  <path id="train-2" data-name="train" d="M21.611,30H4.138a.45.45,0,0,1-.433-.315.469.469,0,0,1,.149-.522l3.62-2.913C3.493,26.25,0,23.62,0,20.625v-15A5.035,5.035,0,0,1,2.3,1.648,8.689,8.689,0,0,1,7.357,0H18.393a8.689,8.689,0,0,1,5.08,1.648A5.033,5.033,0,0,1,25.75,5.625v15c0,3-3.492,5.625-7.473,5.625l3.62,2.913a.469.469,0,0,1,.148.522A.455.455,0,0,1,21.611,30ZM12.875,17.343a3.282,3.282,0,1,0,3.218,3.282A3.255,3.255,0,0,0,12.875,17.343ZM4.138,5.625A1.394,1.394,0,0,0,2.759,7.03v6.563A1.4,1.4,0,0,0,4.138,15H21.611a1.4,1.4,0,0,0,1.38-1.407V7.03a1.4,1.4,0,0,0-1.38-1.405Z" fill="#8756b2"/>
</svg>
