<svg xmlns="http://www.w3.org/2000/svg" xmlns:xlink="http://www.w3.org/1999/xlink"  viewBox="0 0 18 15.752">
  <defs>
    <clipPath id="clip-path">
      <rect width="18" height="15.752" fill="none"/>
    </clipPath>
  </defs>
  <g id="cubes" clip-path="url(#clip-path)">
    <path id="cubes-2" data-name="cubes" d="M13.219,15.752a1.26,1.26,0,0,1-.566-.134L9,13.789,5.347,15.618a1.258,1.258,0,0,1-1.131,0L.7,13.859A1.274,1.274,0,0,1,0,12.728V8.857A1.274,1.274,0,0,1,.819,7.672L4.216,6.4V2.585A1.272,1.272,0,0,1,5.038,1.4L8.554.082A1.257,1.257,0,0,1,9,0a1.235,1.235,0,0,1,.443.082L12.958,1.4a1.272,1.272,0,0,1,.823,1.184V6.4l3.4,1.273A1.273,1.273,0,0,1,18,8.857v3.871a1.274,1.274,0,0,1-.7,1.131l-3.516,1.759A1.26,1.26,0,0,1,13.219,15.752ZM16.8,10.119l-2.988,1.364v2.781L16.8,12.769Zm-8.438,0L5.379,11.483v2.781l2.988-1.495Zm4.851-2.65L9.633,8.811v.021l3.586,1.456L16.8,8.832V8.811Zm-8.438,0L1.2,8.811v.021l3.586,1.456L8.367,8.832V8.811Zm7.8-3.618L9.6,5.152v2.4l2.988-1.121ZM9,1.193,5.414,2.535v.022L9,4.012l3.586-1.455V2.535Z" />
  </g>
</svg>
