<svg xmlns="http://www.w3.org/2000/svg" xmlns:xlink="http://www.w3.org/1999/xlink"  viewBox="0 0 25.935 24.935">
      <path id="Path" d="M9.7,18.009V6.926a2.77,2.77,0,0,1,2.771-2.771H24.935V2.771A2.77,2.77,0,0,0,22.164,0H2.771A2.77,2.77,0,0,0,0,2.771V22.165a2.77,2.77,0,0,0,2.771,2.771H22.165a2.77,2.77,0,0,0,2.771-2.771V20.779H12.468A2.77,2.77,0,0,1,9.7,18.009Z" transform="translate(0 0.043)" />
      <path id="Shape" d="M13.853,11.083H0V0H13.853V11.082ZM5.541,3.463A2.078,2.078,0,1,0,7.619,5.541,2.08,2.08,0,0,0,5.541,3.463Z" transform="translate(12.082 6.97)" />
</svg>
