<svg xmlns="http://www.w3.org/2000/svg" xmlns:xlink="http://www.w3.org/1999/xlink"  viewBox="0 0 18.75 25">
      <path id="Shape" d="M16.667,25H2.084A2.086,2.086,0,0,1,0,22.917V4.167A2.086,2.086,0,0,1,2.084,2.084H4.262A1.566,1.566,0,0,1,5.729,1.041H7.3a2.583,2.583,0,0,1,4.145,0h1.573a1.565,1.565,0,0,1,1.466,1.042h2.18A2.085,2.085,0,0,1,18.75,4.167v18.75A2.085,2.085,0,0,1,16.667,25ZM4.687,18.75A1.563,1.563,0,1,0,6.25,20.312,1.564,1.564,0,0,0,4.687,18.75Zm4.167,1.042a.521.521,0,1,0,0,1.041H15.1a.521.521,0,1,0,0-1.041ZM4.687,13.541A1.563,1.563,0,1,0,6.25,15.1,1.564,1.564,0,0,0,4.687,13.541Zm4.167,1.042a.521.521,0,1,0,0,1.041H15.1a.521.521,0,1,0,0-1.041ZM4.687,8.333A1.562,1.562,0,1,0,6.25,9.9,1.564,1.564,0,0,0,4.687,8.333ZM8.854,9.375a.521.521,0,1,0,0,1.041H15.1a.521.521,0,1,0,0-1.041ZM5.729,2.084a.522.522,0,0,0-.521.521v.52A1.043,1.043,0,0,0,6.25,4.167H12.5a1.043,1.043,0,0,0,1.041-1.042V2.6a.521.521,0,0,0-.52-.521H11.17a.524.524,0,0,1-.451-.259,1.545,1.545,0,0,0-2.688,0,.523.523,0,0,1-.45.259Z" />
</svg>
