<svg xmlns="http://www.w3.org/2000/svg"  viewBox="0 0 18 14.399">
  <path id="warehouse" d="M17.775,14.4h-2.25a.225.225,0,0,1-.225-.225V7.2a.91.91,0,0,0-.917-.9H3.617a.91.91,0,0,0-.917.9v6.975a.225.225,0,0,1-.225.225H.225A.225.225,0,0,1,0,14.174V4.536A1.352,1.352,0,0,1,.83,3.29L8.48.1A1.355,1.355,0,0,1,9.517.1L17.17,3.29A1.352,1.352,0,0,1,18,4.536v9.638A.225.225,0,0,1,17.775,14.4Zm-3.6,0H3.825a.225.225,0,0,1-.225-.225l0-1.35a.225.225,0,0,1,.225-.225H14.175a.225.225,0,0,1,.225.225v1.35A.225.225,0,0,1,14.175,14.4Zm0-2.7H3.833a.225.225,0,0,1-.225-.225l0-1.35A.225.225,0,0,1,3.836,9.9H14.175a.225.225,0,0,1,.225.225v1.35A.225.225,0,0,1,14.175,11.7Zm0-2.7H3.839a.225.225,0,0,1-.225-.225l0-1.35A.225.225,0,0,1,3.842,7.2H14.175a.225.225,0,0,1,.225.225v1.35A.225.225,0,0,1,14.175,9Z" transform="translate(0 0)" />
</svg>
