<svg xmlns="http://www.w3.org/2000/svg" xmlns:xlink="http://www.w3.org/1999/xlink" width="19" height="18" viewBox="0 0 19 18">
  <defs>
    <clipPath id="clip-path">
      <rect width="19" height="18" fill="none"/>
    </clipPath>
  </defs>
  <g id="landmark" clip-path="url(#clip-path)">
    <path id="landmark-2" data-name="landmark" d="M18.406,18H.594A.579.579,0,0,1,0,17.438V16.313a.579.579,0,0,1,.594-.562H18.406a.579.579,0,0,1,.594.562v1.125A.579.579,0,0,1,18.406,18Zm-.594-3.375H1.188V12.938a.579.579,0,0,1,.594-.562h.594V6.75H4.75v5.625H8.313V6.75h2.375v5.625H14.25V6.75h2.375v5.625h.594a.579.579,0,0,1,.594.562v1.686Zm.594-9H.594A.579.579,0,0,1,0,5.063v-1.3a.568.568,0,0,1,.385-.526L9.083.072a1.24,1.24,0,0,1,.834,0l8.7,3.166A.566.566,0,0,1,19,3.765v1.3A.579.579,0,0,1,18.406,5.625Z" fill="#252c32"/>
  </g>
</svg>
