<svg xmlns="http://www.w3.org/2000/svg" width="18.01" height="20.848" viewBox="0 0 18.01 20.848">
  <path id="Bag_of_money" d="M14.78,20.848c-.045,0-.095,0-.167,0H3.4c-.073,0-.123,0-.167,0A3.219,3.219,0,0,1,.951,19.9,4.174,4.174,0,0,1,0,17.053C.129,15.639.973,8.444,5.313,5.737l-.005-.012,0-.007,0-.011L3.88,1.919A1.421,1.421,0,0,1,5.212,0H12.8a1.421,1.421,0,0,1,1.332,1.919L12.711,5.708a.055.055,0,0,1,0,.011.056.056,0,0,0,0,.011l0,.007c4.334,2.705,5.182,9.9,5.308,11.317a4.174,4.174,0,0,1-.949,2.842A3.223,3.223,0,0,1,14.78,20.848ZM6.635,6.632h0c-1.517.7-2.77,2.225-3.726,4.543a22.637,22.637,0,0,0-1.482,6.351,1.6,1.6,0,0,0,.423,1.248,2.088,2.088,0,0,0,1.547.647H14.614a2.088,2.088,0,0,0,1.547-.647,1.6,1.6,0,0,0,.424-1.249A22.637,22.637,0,0,0,15.1,11.175c-.956-2.318-2.209-3.847-3.726-4.543H6.635ZM5.212,1.421l1.423,3.79H11.38L12.8,1.421ZM8.768,18c-.02,0-.045,0-.076,0a.712.712,0,0,1-.627-.635,2.423,2.423,0,0,1-1.476-2.478.7.7,0,0,1,.7-.639c.022,0,.047,0,.08,0A.71.71,0,0,1,8,15.026a.988.988,0,0,0,.787,1.08l.226,0,.222,0a1.034,1.034,0,0,0,.479-.26A1.007,1.007,0,0,0,9,14.121,2.255,2.255,0,0,1,7.41,10.27a2.223,2.223,0,0,1,.647-.441v-.6a.711.711,0,0,1,1.421,0l.023.441a2.246,2.246,0,0,1,1.76,2.193.711.711,0,0,1-1.421,0,.824.824,0,0,0-.245-.588.852.852,0,0,0-1.181,0A.831.831,0,0,0,9,12.7h.006a2.426,2.426,0,0,1,.433,4.813A.707.707,0,0,1,8.768,18Z" fill="#fff"/>
</svg>
