<svg  viewBox="0 0 14 14" version="1.1" xmlns="http://www.w3.org/2000/svg" xmlns:xlink="http://www.w3.org/1999/xlink"><path d="M 7.88735 6.05288L 13.0233 6.05288C 13.2576 6.05288 13.4926 6.14259 13.6716 6.32159C 14.0298 6.67978 14.0298 7.26043 13.6716 7.61865C 13.4926 7.79764 13.2578 7.88713 13.0231 7.88715L 7.88735 7.88735L 7.88713 13.0231C 7.88713 13.2578 7.79762 13.4926 7.61862 13.6716C 7.26043 14.0298 6.67976 14.0298 6.32156 13.6716C 6.14257 13.4926 6.05308 13.2578 6.05306 13.0231L 6.05287 7.88735L 0.917176 7.88713C 0.682419 7.88713 0.447643 7.79762 0.268647 7.61863C -0.0895494 7.26043 -0.0895487 6.67977 0.268647 6.32157C 0.447644 6.14257 0.682401 6.05308 0.917176 6.05306L 6.05289 6.0529L 6.05289 0.91698C 6.0531 0.682425 6.1426 0.44765 6.3216 0.268654C 6.6798 -0.0895425 7.26044 -0.0895602 7.61866 0.268654C 7.79766 0.447651 7.88714 0.682408 7.88716 0.917183L 7.88735 6.05288Z"/>
</svg>
