<svg xmlns="http://www.w3.org/2000/svg" xmlns:xlink="http://www.w3.org/1999/xlink"  viewBox="0 0 18 12.6">

    <path id="money-check-2" data-name="money-check" d="M17.1,12.6H.9a.9.9,0,0,1-.9-.9v-9H18v9A.9.9,0,0,1,17.1,12.6ZM12.825,9a.225.225,0,0,0-.225.225v.45a.225.225,0,0,0,.225.225h3.15a.225.225,0,0,0,.225-.225v-.45A.225.225,0,0,0,15.975,9ZM2.025,9a.225.225,0,0,0-.225.225v.45a.225.225,0,0,0,.225.225h4.95A.225.225,0,0,0,7.2,9.675v-.45A.225.225,0,0,0,6.975,9ZM13.05,5.4a.451.451,0,0,0-.45.45v.9a.451.451,0,0,0,.45.45h2.7a.451.451,0,0,0,.45-.45v-.9a.451.451,0,0,0-.45-.45ZM2.025,6.3a.225.225,0,0,0-.225.225v.45a.225.225,0,0,0,.225.225h8.55a.225.225,0,0,0,.225-.225v-.45a.225.225,0,0,0-.225-.225ZM18,1.8H0V.45A.451.451,0,0,1,.45,0h17.1A.451.451,0,0,1,18,.45V1.8Z" />
</svg>
