<?xml version="1.0" encoding="utf-8"?>
<!-- Generator: Adobe Illustrator 17.0.0, SVG Export Plug-In . SVG Version: 6.00 Build 0)  -->
<!DOCTYPE svg PUBLIC "-//W3C//DTD SVG 1.1//EN" "http://www.w3.org/Graphics/SVG/1.1/DTD/svg11.dtd">
<svg version="1.1" id="Layer_1" xmlns="http://www.w3.org/2000/svg" xmlns:xlink="http://www.w3.org/1999/xlink" x="0px" y="0px"
	 width="425.197px" height="425.197px" viewBox="-180.598 -180.697 425.197 425.197"
	 enable-background="new -180.598 -180.697 425.197 425.197" xml:space="preserve">
<g id="CLOSE_1_" enable-background="new    ">
	<g id="CLOSE">
		<g>
			<path d="M81.793,31.902l139.404-139.404c6.361-6.361,10.304-15.174,10.304-24.891c0-19.445-15.76-35.206-35.206-35.206
				c-9.717,0-18.518,3.943-24.891,10.315L32-17.891l-139.404-139.392c-6.372-6.372-15.174-10.315-24.891-10.315
				c-19.445,0-35.206,15.761-35.206,35.206c0,9.717,3.943,18.518,10.315,24.891L-17.793,31.902l-139.392,139.404
				c-6.372,6.372-10.315,15.174-10.315,24.891c0,19.445,15.761,35.206,35.206,35.206c9.717,0,18.518-3.943,24.891-10.315L32,81.694
				l139.404,139.404c6.372,6.361,15.174,10.304,24.891,10.304c19.445,0,35.206-15.76,35.206-35.206
				c0-9.717-3.943-18.518-10.315-24.891L81.793,31.902z"/>
		</g>
	</g>
</g>
</svg>
