<svg xmlns="http://www.w3.org/2000/svg"  viewBox="0 0 24 15">
  <path  d="M22.088,15H1.912a1.882,1.882,0,0,1-1.35-.572A1.96,1.96,0,0,1,0,13.05V1.95A1.96,1.96,0,0,1,.562.572,1.882,1.882,0,0,1,1.912,0H22.088a1.885,1.885,0,0,1,1.356.574A1.949,1.949,0,0,1,24,1.957V13.05a1.96,1.96,0,0,1-.562,1.378A1.883,1.883,0,0,1,22.088,15Zm-20.3-3.855a1.925,1.925,0,0,1,1.4.6A2.077,2.077,0,0,1,3.763,13.2a1.719,1.719,0,0,1-.112.63h16.51a1.7,1.7,0,0,1-.056-.245,1.813,1.813,0,0,1-.018-.251,2.08,2.08,0,0,1,.579-1.453,1.925,1.925,0,0,1,1.4-.6,2.291,2.291,0,0,1,.736.139V3.9a2.253,2.253,0,0,1-.742.141,1.926,1.926,0,0,1-1.4-.6,2.083,2.083,0,0,1-.578-1.453,2.683,2.683,0,0,1,.132-.765H3.651a1.721,1.721,0,0,1,.112.63,2.081,2.081,0,0,1-.579,1.453,1.928,1.928,0,0,1-1.4.6A2.487,2.487,0,0,1,1.2,3.824v7.405A2.488,2.488,0,0,1,1.787,11.146Zm10.361.882A4.359,4.359,0,0,1,9.013,10.7a4.586,4.586,0,0,1,0-6.394,4.373,4.373,0,0,1,6.269,0,4.586,4.586,0,0,1,0,6.394A4.359,4.359,0,0,1,12.147,12.028Zm-.64-1.883a.012.012,0,0,1,.009,0c.005.006,0,.017-.006.031a.109.109,0,0,0-.012.041v.311a.433.433,0,0,0,.111.291.368.368,0,0,0,.279.113c.074,0,.15.005.225.005s.151,0,.226-.005a.367.367,0,0,0,.274-.111.4.4,0,0,0,.1-.284c0-.044,0-.089,0-.134v-.039c0-.085,0-.173,0-.287l.04-.012a1.683,1.683,0,0,0,.877-.572,1.712,1.712,0,0,0,.344-.783,1.644,1.644,0,0,0-.018-.559,1.7,1.7,0,0,0-.832-1.127,6.606,6.606,0,0,0-.737-.347l-.011,0-.023-.01-.023-.009a1.672,1.672,0,0,1-.38-.217A.179.179,0,0,1,12,6.114a.627.627,0,0,1,.2-.04l.106,0a1.75,1.75,0,0,1,.775.181.523.523,0,0,0,.226.065.271.271,0,0,0,.107-.022c.058-.024.142-.079.205-.269.059-.169.106-.343.158-.537a.4.4,0,0,0-.02-.292.424.424,0,0,0-.213-.2,2.755,2.755,0,0,0-.626-.2L12.868,4.8a.167.167,0,0,0-.036,0H12.8l-.026,0c-.015,0-.024,0-.029-.009s0-.029,0-.051V4.729a.243.243,0,0,0,.011-.065c0-.326-.044-.437-.109-.5s-.176-.111-.493-.111h-.177a.428.428,0,0,0-.316.109.462.462,0,0,0-.1.324v.263a.286.286,0,0,0,.008.062c0,.023.008.04,0,.051s-.025.014-.047.018h-.007a.351.351,0,0,0-.061.016,1.718,1.718,0,0,0-.788.547,1.566,1.566,0,0,0-.307.8c0,.029-.005.058-.007.087a1.42,1.42,0,0,0,.182.81,1.788,1.788,0,0,0,.63.611,2.4,2.4,0,0,0,.235.128c.121.058.239.108.388.17l.007,0c.111.045.2.084.282.121a1.287,1.287,0,0,1,.282.169.284.284,0,0,1,.111.248.267.267,0,0,1-.17.2.807.807,0,0,1-.332.069,1.067,1.067,0,0,1-.137-.01,2.427,2.427,0,0,1-.813-.246.525.525,0,0,0-.23-.068.262.262,0,0,0-.11.023c-.058.026-.142.083-.2.282-.055.176-.1.327-.136.473a.527.527,0,0,0,0,.358.5.5,0,0,0,.268.232l.035.016a2.859,2.859,0,0,0,.734.221l.076.012a.119.119,0,0,0,.03,0l.009,0,.008,0Zm7.378-1.3a1.067,1.067,0,0,1-.766-.323,1.122,1.122,0,0,1,0-1.562,1.069,1.069,0,0,1,1.532,0,1.119,1.119,0,0,1,0,1.562A1.067,1.067,0,0,1,18.886,8.85ZM5.4,8.85a1.067,1.067,0,0,1-.766-.323,1.122,1.122,0,0,1,0-1.562,1.069,1.069,0,0,1,1.532,0,1.122,1.122,0,0,1,0,1.562A1.073,1.073,0,0,1,5.4,8.85Z" />
</svg>
